<?xml version="1.0" encoding="UTF-8" standalone="no"?>
<!-- Created with Inkscape (http://www.inkscape.org/) -->

<svg
   xmlns:dc="http://purl.org/dc/elements/1.1/"
   xmlns:cc="http://creativecommons.org/ns#"
   xmlns:rdf="http://www.w3.org/1999/02/22-rdf-syntax-ns#"
   xmlns:svg="http://www.w3.org/2000/svg"
   xmlns="http://www.w3.org/2000/svg"
   xmlns:sodipodi="http://sodipodi.sourceforge.net/DTD/sodipodi-0.dtd"
   xmlns:inkscape="http://www.inkscape.org/namespaces/inkscape"
   width="210mm"
   height="297mm"
   viewBox="0 0 210 297"
   version="1.1"
   id="svg8"
   inkscape:version="0.92.5 (2060ec1f9f, 2020-04-08)"
   sodipodi:docname="paralaksa.svg">
  <defs
     id="defs2" />
  <sodipodi:namedview
     id="base"
     pagecolor="#ffffff"
     bordercolor="#666666"
     borderopacity="1.0"
     inkscape:pageopacity="0.0"
     inkscape:pageshadow="2"
     inkscape:zoom="0.49497475"
     inkscape:cx="1062.3714"
     inkscape:cy="112.18625"
     inkscape:document-units="mm"
     inkscape:current-layer="layer1"
     showgrid="false"
     inkscape:window-width="1920"
     inkscape:window-height="1027"
     inkscape:window-x="-8"
     inkscape:window-y="-8"
     inkscape:window-maximized="1" />
  <metadata
     id="metadata5">
    <rdf:RDF>
      <cc:Work
         rdf:about="">
        <dc:format>image/svg+xml</dc:format>
        <dc:type
           rdf:resource="http://purl.org/dc/dcmitype/StillImage" />
        <dc:title />
      </cc:Work>
    </rdf:RDF>
  </metadata>
  <g
     inkscape:label="Layer 1"
     inkscape:groupmode="layer"
     id="layer1">
    <path
       sodipodi:nodetypes="cssscccc"
       inkscape:connector-curvature="0"
       id="path4523"
       d="m 0,254.70447 c 0,0 55.711604,-5.22677 91.422999,-4.15774 51.145491,1.53105 194.589451,-11.28927 221.824781,-18.70982 47.95911,-13.06697 28.53461,29.22109 95.67523,25.51339 C 431.69552,256.09273 508,254.89346 508,254.89346 l 0,89.68052 H 0 Z"
       style="fill:#3dc2ff;fill-opacity:1;stroke-width:0.22117867"
       inkscape:export-xdpi="96"
       inkscape:export-ydpi="96" />
    <path
       sodipodi:nodetypes="ccccccccccccccccccccc"
       inkscape:connector-curvature="0"
       id="path3716"
       d="m 0,262.64197 70.870541,-5.29167 52.471089,19.54833 24.72058,-15.46762 10.77299,14.97228 19.89707,-17.88843 11.40803,18.34832 27.30729,-18.46091 13.59037,14.82303 63.28044,-9.32053 56.47261,13.51588 30.49247,-15.53463 6.42938,15.22928 27.36139,-14.0784 14.37517,15.57372 23.20695,-15.3816 22.30553,10.75135 33.0381,-9.25953 0,79.85314 H 0 Z"
       style="fill:#3d74ff;fill-opacity:1;stroke-width:0.22117867"
       inkscape:export-xdpi="96"
       inkscape:export-ydpi="96" />
    <path
       style="fill:#3d00ff;fill-opacity:1;stroke-width:0.22117867"
       d="m 0,274.54822 c 0,0 59.255129,12.53811 94.966524,13.60714 51.145486,1.53105 97.496816,-9.96635 148.828136,-10.96131 68.38478,-1.32551 136.96652,10.51127 204.10716,6.80357 C 470.67434,282.74005 508,274.54822 508,274.54822 l 0,70.02576 H 0 Z"
       id="rect3713"
       inkscape:connector-curvature="0"
       sodipodi:nodetypes="cssscccc"
       inkscape:export-xdpi="96"
       inkscape:export-ydpi="96" />
  </g>
</svg>
